
<svg class="svg-icon" viewBox="0 0 1024 1024" version="1.1" xmlns="http://www.w3.org/2000/svg"><path d="M854.2805588 238.74739191c0 13.52142565-244.26589923 318.62151398-244.26589923 318.62151473S609.77014923 717.20536073 609.77014923 753.0505868c0 41.56676954-8.28890288 52.98540531-28.02089269 63.35264689-39.29282287 20.63667842-78.92796007 42.74041967-116.65591611 58.90255828-49.92902522 21.39466063-49.92902522-7.13970394-49.92902598-23.42409774 0-28.53436458-0.75798222-294.51278758-0.75798222-294.51278759S169.65141231 252.26881755 169.65141231 238.74739191v-73.35312219a24.45104073 24.45104073 0 0 1 24.4510415-24.45104149h635.7270635a24.45104073 24.45104073 0 0 1 24.45104149 24.45104149v73.35312219z" fill="#EEEEEE" /><path d="M435.84989524 907.43445971c-18.99845879 0-33.84024093-9.53590579-40.68653215-26.04035875-4.45008937-10.7340071-4.45008937-21.98148607-4.45008937-29.43905316 0-25.47798448-0.61127586-240.13367301-0.73353103-285.88157115C145.20037157 260.70442679 145.20037157 249.04128069 145.20037157 238.74739191v-73.35312219c0-26.96949851 21.9325837-48.90208223 48.90208224-48.90208222h635.7270635c26.99394893 0 48.90208223 21.9325837 48.90208222 48.90208222v73.35312219c0 10.26943683 0 21.9325837-244.29034964 327.22828074-0.04890238 33.62018099-0.22005916 156.24215169-0.22005993 187.07491415 0 46.82374351-10.7340071 69.02528874-41.12665046 85.01626983l-25.35572931 13.44807209c-30.75940965 16.33329541-62.49686068 33.18006269-93.01175998 46.33472282-15.13519409 6.4306241-27.84973592 9.58480817-38.87715497 9.58480817zM194.10245381 233.29480996c19.34077311 31.63964704 155.04405038 203.65271988 239.40014119 308.74329386 3.47204798 4.35228538 5.35477796 9.68261215 5.37922914 15.23299808 0 0 0.75798222 266.07622699 0.75798223 294.61059233 0 1.61376844 0 4.00997106 0.09780397 6.18611375a77.75430995 77.75430995 0 0 0 15.74647074-5.23252279c28.65661974-12.27442273 59.48938219-28.70552213 89.31965283-44.52534564l25.62469085-13.57032803c9.92712249-5.23252279 14.91513493-7.82433337 14.91513494-41.68902472 0-35.84522607 0.26896154-195.73058253 0.26896153-195.73058253a24.20653038 24.20653038 0 0 1 5.35477795-15.23299807c84.16048284-105.13947636 219.61924976-277.15254919 238.9111205-308.79219623V165.39426973H194.10245381v67.90054024z" fill="#777777" /><path d="M464.09084787 483.33115427a24.45104073 24.45104073 0 0 1-19.24296991-9.34029705l-172.18422961-219.03242509a24.45104073 24.45104073 0 0 1 38.43703589-30.22148658l172.18423038 219.03242509a24.45104073 24.45104073 0 0 1-19.19406675 39.56178362z" fill="#777777" /></svg>